<?xml version="1.0" encoding="UTF-8"?>
<svg id="_Слой_2" data-name="Слой 2" xmlns="http://www.w3.org/2000/svg" viewBox="0 0 418 625.6">
  <defs>
    <style>
      .cls-1 {
        fill: #2c3352;
      }

      .cls-2 {
        fill: #fcd46c;
      }

      .cls-3 {
        fill: #403b40;
      }

      .cls-4 {
        fill: #2f344e;
      }

      .cls-5 {
        fill: #413611;
      }

      .cls-6 {
        fill: #31354b;
      }

      .cls-7 {
        fill: #dbc99a;
      }

      .cls-8 {
        fill: #fcd662;
      }

      .cls-9 {
        fill: #51443b;
      }

      .cls-10 {
        fill: #7eb997;
      }

      .cls-11 {
        fill: #a69a4f;
      }

      .cls-12 {
        fill: #33272a;
      }

      .cls-13 {
        fill: #c9be98;
      }

      .cls-14 {
        fill: #1f4343;
      }

      .cls-15 {
        fill: #2e3450;
      }

      .cls-16 {
        fill: #2d2f5b;
      }

      .cls-17 {
        fill: #2d334e;
      }

      .cls-18 {
        fill: #e3d36e;
      }

      .cls-19 {
        fill: #fbd662;
      }

      .cls-20 {
        fill: #f0e198;
      }

      .cls-21 {
        fill: #24334d;
      }

      .cls-22 {
        fill: #f7d465;
      }

      .cls-23 {
        fill: #eadf6a;
      }

      .cls-24 {
        fill: #293253;
      }
    </style>
  </defs>
  <g id="_Слой_1-2" data-name="Слой 1">
    <g>
      <path class="cls-1" d="M173,14.4c4.38.03,5.62,1.24,5.01-4,4.27,1.39,4.43-2.53,6.31-3.68,6.54-4,9.44-2.85,16-4.34.75-.17.61-1.78,1.37-1.96,5.26-1.26,10.36.57,15.05,1.75,5.01,1.26,8.13,1.43,13.26,2.22s11.93,8.47,16,12c1.08,2.75,2.62,5.39,4,8-1.79,4.01,1.9,6.31,1.98,6.68.99,4.41-1.39,9.09,5.99,10.83,10.5,2.48,26.48-1.07,37.44-1.52,1.39,2.82,4.72,2.29,7.83,4.05.9.51,6.61,8.13,6.72,8.67.89,4.04-.53,10.33-.01,14.69.19,1.22,1.65.37,2.05.59,6.99,3.88,10.26.32,17.46-.04,17.46-.87,39.42,2.1,55.54.04,2.66-.34,1.62,1.7,2.69,1.98,12.35,3.19,20,7.57,26.33,19.5,1.16,2.19,3.51,10.08,3.98,10.52v490c-.48,3.34-.81,6.83-2,10-3.88,10.38-13.49,19.25-24,23l-.67-.82c-2.59-1.87-7.2,1.82-7.83,1.82H30c-.39,0-.64-4.83-6-1h-1c0-.29-.97-.77-1-1-.11-.98.26-3.77,0-3.99-.38-.31-2.36.36-3.2-.05-.67-.33-4.25-2.13-4.48-2.28-1.94-1.24-3.86-6.62-7.31-5.68-1.11-1.36-2.05-2.47-3-4,1.58-5.87-3.32-6.64-4-12l4-2,1.99,1.99c.61-5.81-.78-12.95-.07-18.56.24-1.92,2.11-1.04,2.16-2.87l-.07-457.06-4.01,2.5c-.01-2.66.04-5.34,0-8l4.01-.51c.04-2.19-2.19-2.7-4.01-2.49-.07-1.99.06-4.01,0-6l-3.99,1c1.04-6.6,4.25-10.91,6-17,.09-.31-.08-.69,0-1l9.61-6.42c3.51-5.78,8.63-4.45,13.71-5.6.74-.17.6-1.79,1.36-1.96,14.19-3.22,51.78-1.68,67.86-1.06,1.58.06,5.9,1.4,6.41,1.02.24-.18.39-2.29,1.04-3.27.54-.81,1.79-.17,2.08-2.17.75-5.06-1.84-4.43-2.04-5.22-1.34-5.26,1.72-5.24,1.94-6.04.8-3-.09-1.87,1.64-4.7.49-.8.25-2.17.52-2.4.76-.67,3.08.3,3.78-.29.36-.31-.31-2.22.67-2.97,2.95-2.23,26.96-.27,32.95-.87,2.69-.27,4.52-2.07,6.93-2.07,2.18,0,4.47,1.69,6.86.92,3.99-2.23,1.99-7.05,2.7-10.2.17-.75,1.8-.61,1.97-1.36.45-1.99-.43-4.19.14-6.19,5.29-.65,2.99-2.55,3.93-4.33.64-1.22,2.87-1.01,1.94-3.8.32-.35.68-.66,1-1ZM245,52.4c-5.31-5.68-2.88-5.93-4.24-12.26-4.17-19.38-22.53-28.77-41.31-26.81-3.62,3.16-8.12,4.91-12.45,7.07-.44.22-1.83-.16-2.99.49-4.04,2.27-8.16,11.28-9.01,15.51-.38,1.87-.64,4.03-1,6-3.45-.53-1.5,1.55-1.7,3.16-.39,3.22.44,5.63-4.02,6.62l-45.78.22c-1.19-.01.49.87.5,1,.02.44.02.86-.5.99h-4.5c1.68,10.08-3.04,43,2.01,50.01.29.41.34,1.19.98,1.49l174.08.04c.97-.59.76-1.63.94-2.53l1-46c.74.9,1.1,1.83,1.01,3l1.82-2.3-4.55-5.65c-4.99-.63-11.02.65-15.84.04-1.91-.24-.95-1.92-2.87-2.16-2.68-.34-10.45-.34-13.13,0-1.91.24-.95,1.92-2.87,2.16-4.71.59-10.68-.58-15.57-.08ZM316,82.4l-3.99-3c1.02,2.39-1.83,3.11-1.98,3.72-1.6,6.66,1.11,18.94-.03,26.29-1.2,2.84-2.29,4.51-4,7-.67,0-1.33,0-2,0-5.79-.08-5.52,1.75-10,2-.06-.73.47-2.14-.6-2.02l-180.4,1.02c-.21-.21-1.38-.3-2-1,2.35-2.88-2.02-4.76-2.02-8h-1.98s0,2,0,2c-4.84-9.73-2.61-17.41-3-28H36.5c-3.02,0-10.96,3.42-13.44,5.56-1.48,1.28-8.57,9.05-9.06,10.44h-2c-.07-1.36-2.95-5.36-3.99-3.99-1.43,1.86,3.92,6.8,1.99,9.99l-.08,484.57c2.26,1.53,1.77,4.54,2.26,5.26.36.53,1.74.07,1.82.17,4.04,5.77,6.84,10.42,12.73,15.07.93.74,2.98.66,3.27.93.15.14-.57,2.43,1.43,2.08l352.07-.08-1.5-1v-1c6.84-.42,11.98-4.91,16-10,3.17-4.01,5.9-8.06,6.04-13.46l-.04-480.54c.09.52,1.65,2.03,1.07,3.38l-.07,474.13,1,3.49V102.9c0-.3-2.51-5.26-2.99-4.49v1.99c-.38-.93-2.31-2.9-3.01-4-3.16-4.99-5.8-8.19-11.3-11.22-1.92-1.06-4.24.09-5.19-2.58-21.44,1.33-46.43-2.42-67.51-.2ZM108.99,106.4v-1.99h-.98v1.99h.98Z"/>
      <path class="cls-14" d="M24,623.4c5.36-3.83,5.61,1,6,1h353.5c.62,0,5.24-3.69,7.83-1.82l.67.82c-2.98,1.06-6.8,1.83-10,2H33c-2.63.59-3.96-.24-6-1-.33-1.02-1.18-.87-2-1-.32-.05-.67.04-1,0Z"/>
      <path class="cls-14" d="M250,24.4c2.48,4.72,5.55,9.27,5.01,15,17.3,2.44,44.24-7.06,54.99,10,.78,1.24.09,3.27,2,5v14c-.4-.22-1.86.63-2.05-.59-.52-4.36.9-10.65.01-14.69-.12-.54-5.82-8.15-6.72-8.67-3.11-1.76-6.43-1.23-7.83-4.05-10.97.45-26.94,3.99-37.44,1.52-7.38-1.74-4.99-6.42-5.99-10.83-.08-.37-3.77-2.67-1.98-6.68Z"/>
      <path class="cls-14" d="M198.5.4v1c.65-.33.65-.67,0-1Z"/>
      <path class="cls-10" d="M165,23.4c.12-.45.57-.82,1-1-.27.38-.66.68-1,1Z"/>
      <path class="cls-19" d="M187,20.4c4.33-2.16,8.82-3.91,12.45-7.07,18.78-1.97,37.14,7.43,41.31,26.81,1.36,6.34-1.08,6.58,4.24,12.26.65.7.72,2.09,2.48,1.99,13.89,1.27,30.53-1.64,44.07-.03,1.96.23,2.99.84,4.45,2.05-.96,14.88,1.29,31.32,0,46l-3.44,2.08-169.98-.06-2.58-4.02c0-10.67-1.38-26.68-.08-36.57.24-1.86,1.88-1.29,2.06-2.12.69-3.15-.79-6.93,4.4-7.39,8.52-.75,30.04-1.06,38.18,0,1.78.23,1.24,3.31,6.71,2.03.32-.08,4.62-4.35,4.69-4.68.65-3.17-.65-7.61.06-10.59.09-.37,3.82-2.64,1.99-6.69l1.98,1.01,2.01-9.01c2.02-2.61,4.81-3.62,5-6ZM204.76,25.67c-25.77,3.46-25.83,40.98-1.81,45.29,36.42,6.53,36.77-49.98,1.81-45.29Z"/>
      <path class="cls-16" d="M0,102.4l3.99-1c.06,1.99-.06,4.01,0,6,.03,1-.02,2,0,3,.04,2.66-.01,5.34,0,8,.81,157.97-.61,316.02,0,474l-4,2V102.4Z"/>
      <path class="cls-21" d="M4,118.4l4.01-2.5.07,457.06c-.04,1.82-1.91.94-2.16,2.87-.71,5.61.69,12.75.07,18.56l-1.99-1.99c-.61-157.98.81-316.03,0-474Z"/>
      <path class="cls-23" d="M403,100.4c.52,1.31.71,4.35,1,6l.04,480.54c-.14,5.4-2.87,9.45-6.04,13.46-.67-4.57,4.31-5,.99-9.99h3.01V104.4c0-.11-1.74.42-2.02-.65-.52-1.98.35-5.13.02-7.35.7,1.1,2.63,3.07,3,4Z"/>
      <path class="cls-9" d="M14,98.4c-.7,1.96-2,10.58-2,12.5v473l2,10.5c-.07-.1-1.45.35-1.82-.17-.5-.72,0-3.72-2.26-5.26l.08-484.57c2-1.32,2.12-3.78,2-6h2Z"/>
      <path class="cls-12" d="M403,100.4v-1.99c.49-.77,3,4.2,3,4.49v484.5l-1-3.49.07-474.13c.58-1.35-.98-2.86-1.07-3.38-.29-1.65-.48-4.69-1-6Z"/>
      <path class="cls-6" d="M113,117.4l180.4-1.02c1.07-.12.55,1.29.6,2.02-56.42,3.19-115.77-2.25-172.55,0-1.93.08-4.01-1.03-3.45,2-.96-.11-2.56-1.39-4-1-.41-.35-.59-1.58-1-2Z"/>
      <path class="cls-18" d="M120,100.4l2.58,4.02,169.98.06,3.44-2.08c-.03.33.06.68,0,1-.17.9.03,1.94-.94,2.53l-174.08-.04c-.64-.3-.68-1.08-.98-1.49v-4Z"/>
      <path class="cls-5" d="M34,610.4l348,1,1.5,1-352.07.08c-2,.35-1.28-1.95-1.43-2.08h4Z"/>
      <path class="cls-13" d="M382,610.4v1l-348-1c115.98,0,232.02,0,348,0Z"/>
      <path class="cls-7" d="M182,26.4l-2.01,9.01-1.98-1.01c1.83,4.05-1.9,6.32-1.99,6.69-.72,2.98.59,7.42-.06,10.59-.07.32-4.36,4.6-4.69,4.68-5.47,1.28-4.92-1.8-6.71-2.03-8.14-1.06-29.66-.74-38.18,0-5.19.46-3.71,4.24-4.4,7.39-.18.83-1.82.25-2.06,2.12-1.3,9.89.08,25.9.08,36.57v4c-5.04-7.01-.33-39.93-2.01-50.01h4.5c.52-.13.52-.55.5-.99l47.31-.19c4.9-2.31,3.03-7.14,3.69-10.81.36-1.97.62-4.13,1-6,2.94-2.91,4.34-6.56,7-10Z"/>
      <path class="cls-20" d="M306,116.4c-.48.7-.85,2.87-2.34,3.63-1.82.93-6.92,2.22-9.11,2.43H117.46c-1.46-.16-2.19-1.97-3.46-3.06,1.44-.39,3.04.89,4,1s2.01-.04,3,0c1.04,1.66,3.79,1,5.49,1.02,55.03.68,110.1-.61,165.13.06,1.36.55,2.8-.96,3.38-1.07,3.28-.61,6.97-.43,9-4,.67,0,1.33,0,2,0Z"/>
      <path class="cls-3" d="M245,52.4c4.89-.51,10.86.67,15.57.08,1.91-.24.95-1.92,2.87-2.16,2.68-.34,10.45-.34,13.13,0,1.91.24.95,1.92,2.87,2.16,4.82.61,10.86-.67,15.84-.04l4.55,5.65-1.82,2.3c.09-1.17-.27-2.1-1.01-3-.3-.36-.64-.7-1-1-1.45-1.21-2.49-1.81-4.45-2.05-13.54-1.61-30.17,1.3-44.07.03-1.76.1-1.83-1.29-2.48-1.99Z"/>
      <path class="cls-12" d="M174,42.4c-.67,3.67,1.2,8.49-3.69,10.81l-47.31.19c0-.14-1.69-1.02-.5-1l45.78-.22c4.46-.99,3.63-3.4,4.02-6.62.19-1.61-1.75-3.69,1.7-3.16Z"/>
      <path class="cls-7" d="M297,57.4l-1,46c.06-.32-.03-.67,0-1,1.29-14.68-.96-31.12,0-46,.36.3.7.64,1,1Z"/>
      <path class="cls-3" d="M310,109.4c1.14-7.35-1.57-19.63.03-26.29.15-.61,3-1.33,1.98-3.72l3.99,3c-6.8.71-5.01,9.78-5.04,15.54-.03,5.93,1.96,4.57-.96,11.46Z"/>
      <path class="cls-9" d="M187,20.4c-.19,2.38-2.98,3.39-5,6-2.66,3.44-4.06,7.09-7,10,.85-4.23,4.98-13.24,9.01-15.51,1.16-.65,2.55-.27,2.99-.49Z"/>
      <path class="cls-3" d="M304,116.4c-2.03,3.57-5.72,3.39-9,4h-1c-.03-.66.05-1.34,0-2,4.48-.25,4.21-2.08,10-2Z"/>
      <path class="cls-21" d="M10,104.4c1.93-3.2-3.42-8.14-1.99-9.99,1.05-1.37,3.92,2.64,3.99,3.99.12,2.22,0,4.68-2,6Z"/>
      <path class="cls-6" d="M107,110.4v-1.99s1.98,0,1.98,0c0,3.24,4.36,5.11,2.02,8-.49-.55-1.52-.81-2.43-2.06-.72-.99-.97-2.73-1.57-3.94Z"/>
      <path class="cls-21" d="M4,107.4c1.82-.21,4.05.3,4.01,2.49l-4.01.51c-.02-1,.03-2,0-3Z"/>
      <rect class="cls-6" x="108.01" y="104.41" width=".98" height="1.99"/>
      <path class="cls-1" d="M198.5.4c.65.33.65.67,0,1V.4Z"/>
      <path class="cls-15" d="M275,158.4c6.14.65,16.26,9.13,18.73,14.77.84,1.93.9,4.19,1.27,6.23,1.74,9.43,2.3,43.1-.24,51.07-.53,1.67-1.31,2.8-.76,4.93-12.08,23.42-32.61,19.31-56,19-4.2-2.63-5.45-3.25-6-8.5v-83.5c1.21-1.37,1.37-2.46,3-4,12.78.99,27.47-1.33,40,0ZM274,174.4c1.31-1.5-4.17-4-4.5-4h-23.5v70l22-1c1.09-.14,1.56-.86,2-1,4.5-1.42,7.72-3.05,10-7,1.07-1.84,1.69-2.73,2-5,.04-.33-.03-.67,0-1h1l1,.5c-.78-13.37,1.04-27.82,0-41.05-.24-3.07.49-2.57-3-2.45-1.79-4.01-2.98-6.03-7-8Z"/>
      <path class="cls-4" d="M378,180.4v47c-.35,2.32-.51,4.7-1,7-1.52,2.38-3.87,5.53-5,8-3.28,2-6.81,6.21-10,8-18.45,10.36-42.65-.7-47.55-20.95-2.77-11.45-2.63-43.4,2.16-53.93,10.41-22.92,42.36-25.73,56.82-5.05,2.13,3.04,2.91,7.6,4.56,9.94ZM336,174.4c-4.16,2.51-7.26,7.8-7.91,12.59-.99,7.27-1,28.6-.12,35.95.37,3.08,1.44,3.04,2.03,4.46,2.06,4.97,2.57,5.02,6,9,.31.36,1.41,3.72,2.72,3.96,1.85.34,3.86-.32,5.6.05.61.13.55,3.21,4.97,1.95.68-.19.68-1.48,1.03-1.63,1.5-.65,6.26-1.98,7.36-2.66.24-.15,3.89-3.72,4.01-3.97.54-1.21.12-2.14.3-2.7,2.94-9.16,3.08-34.44,2-44.5-1.43-13.4-16.83-19.25-28-12.5Z"/>
      <path class="cls-17" d="M160,158.4c11.43,2.96,19.97,13.9,22,25v46c-2.16,11.06-12.46,23.35-24,25-42.14,6.04-42.61-36.68-40.04-66.54,1.8-20.94,21.56-34.76,42.04-29.46ZM168,226.4c3.02.56,1.94-1.53,2-3.45.41-12.35-.35-24.76.06-37.11.45-2.26-1.78-1.19-2.06-1.43-1.73-1.52-2.55-5.33-4.95-7.55-8.61-7.91-23.88-5.65-28.79,5.3-3.23,7.21-3.43,37.86-.98,45.46,5.67,17.56,30.21,16.67,34.72-1.22Z"/>
      <path class="cls-17" d="M342,449.4c4.6,4.05,6.58,10.86,0,14l-186-1c-2.49-2.56-3.25-1.49-3.04-6.48s3.22-4.25,4.04-6.52h185Z"/>
      <path class="cls-24" d="M342,526.4c5.43.78,5.68,9.94,0,12h-185c-.31-.07-.7.1-1,0,1.12-4.31-3.36-3.91-2.01-8.29.24-.78,5.11-4,6.46-3.77l181.56.06Z"/>
      <path class="cls-4" d="M102,173.4c-3.29,7.29-3.68,4.41-8.48,4.93-5.52.59-10.86,1.7-16.52,1.07l.03,59.53-3.02,7.48c-2.34.63-4.8,1.54-7.28.81-1.3-.38-4.72-4.43-4.72-5.31v-62.5h-20.5c-4,0-6.3-8.21-2.5-12l58-2c4.52,1.63,4.74,3.61,5,8Z"/>
      <path class="cls-4" d="M80,406.4c-3.52.67-4.29,1.99-8.38-.13-3.24-1.68-21.39-22.16-21.62-25.44-.14-2.03,1.36-4.78,2.92-6.01,8.76-6.88,16.39,10.57,23.44,13.5,2.27-.4,25.95-27.19,31.14-30.92,4.4-3.16,11-4.48,13.04,1.94,2.63,8.27-8.24,14.08-13.08,19-4.54,4.62-8.85,9.51-13.47,14.05s-10.02,8.67-14,14Z"/>
      <path class="cls-6" d="M70.37,329.99l-19.24-21.21c-3.74-6.55,2.66-13.64,9.61-10.62,3.66,1.59,13.95,15.56,15.63,15.18l33.07-32.98c9.34-3.81,15.24,3.8,9.08,12.07-3.91,5.24-33.13,34.74-38.01,37.98-4.13,2.74-6.25,2.17-10.14-.42Z"/>
      <path class="cls-6" d="M55.58,464.82c-3.47-4.21-10.1-10.87-1.87-15.2,9.95-5.23,15.23,11.18,22.65,14.71l33.65-33.4c7.81-3.35,14.67,5.48,8.99,11.98l-40.97,40.09c-2.34.83-5.65-.06-7.56-1.57-3.08-2.43-11.9-12.99-14.89-16.61Z"/>
      <path class="cls-3" d="M342,373.4c.78.47.04,1.43,3,2,2.36,5.8,1.59,12.18-5.46,13.04h-179.09c-9.88,0-9.97-10.93-2.45-15.04h184ZM342,376.4h-184.5c-5.6,7.98,3.43,13.84,9.93,7.92h157.13c1.82.04.94,1.91,2.87,2.16,6.81.86,19.2,1.83,16.56-8.07l-1.98,1.99v-4Z"/>
      <path class="cls-4" d="M77,540.4l2.7-.31,30.55-31.39c4.6-1.01,8.89-1.15,9.79,4.27.28,1.66-1.4,1.05-1.98,2.22-.32.65.19,2.08-.29,2.95-.64,1.17-4.64,1.71-5.47,2.56-.73.74-1.01,3.35-2.36,4.93-4.15,4.85-10.43,7.92-13.62,11.1-.46.46-2.02,4.44-2.76,5.22-3.82,4.03-7.88,9.23-13.56,9.47l1.98.99v1.98c-2.24.28-3.91,1.57-3.99,4.02-.83.16-3.17.16-4,0l3.01-2.01-1.01-3.99-5.38,2.06c-1.02-2.78-7.35-6.58-8.31-8.34-.6-1.09.05-2.94-.46-3.53-.39-.45-2.07-.16-2.81-.69-1.69-1.21.28-4.85-5.03-3.49-1.01-1.16-3.01-1.63-3.57-3.96-.62-2.55.96-8.35,3.59-9.52,9.16-4.07,16.13,12.32,22.98,15.47Z"/>
      <rect class="cls-2" x="394" y="110.4" width="2" height="480"/>
      <path class="cls-2" d="M158,372.4l.66-2.01c4.02-.02,5.98.95,8.78-2.07l174,.06-1.43,4.01c-59.76,2.65-122.6-3.54-182,0Z"/>
      <path class="cls-18" d="M158,372.4v1c-7.52,4.12-7.43,15.05,2.45,15.05h179.09c7.05-.86,7.82-7.25,5.46-13.05.07.01.38-1.02.8-.85.19.07,2.32,3.09,2.38,3.29,1.71,5.59-1.14,9.88-5.64,12.63h-186.09s-2.96-1.04-2.96-1.04c-1.62-6.89-5.44-6.32-1.76-13.74,1.47-2.97,3.47-3.11,6.27-3.28Z"/>
      <path class="cls-18" d="M152,308.4c-.21-.82.3-2.18-.02-3.28-.27-.91-2.85-.28-1.94-4,.58-2.35,4.96-2.49,5.71-2.96.69-.43.69-2.31,1.66-2.48.59-.11,3.37.79,5.04.78,60.03-.3,120.06.16,180.09-.12,8.03,4.22,7.74,14.93-.54,18.06l-2-1v-1c7.12-1.02,8.52-9.89,2-13-.99-.47-1.72-1.55-3.39-1.07-57.36,1.54-115.33-1.83-172.61.07-5.48.18-9.67-1.67-12,4-.86,2.1-1.52,3.38-1,6h-1ZM151.5,302.4v1c.65-.33.65-.67,0-1Z"/>
      <path class="cls-9" d="M342,463.4c-.99.47-1.72,1.55-3.39,1.07l-182.48-.24c-.46-.38,0-1.68-.13-1.83l186,1Z"/>
      <path class="cls-18" d="M158,254.4c-.43,1.52,1.39,3.85-1.48,4-2.33.13-7.41,1.03-8.82.82-2.91-.43-4.36-3.99-6.41-4.62s-5.63-2.1-5.97-2.18c-1.51-.34-4.52.48-5.19-.16-.34-.32-.06-2.04-.66-2.81-1.09-1.4-7.67-2.78-5.5-6.57l-3.51-.4c-.95-1.59-.08-3.73-.48-5.38-.53-2.23-5.5-10.66-5.92-13.25-.56-3.47-.97-35.11-.06-36.71.38-.67,3.9-5.07,3.98-5.43.33-1.48-.3-3.19.02-4.64.17-.79,1.99-.67,2.05-1.21.27-2.27-3.05-4.56-2.05-7.44,3.17-.57,1.24,3.71,5.05,1.53,1.66-2.63,3.56-8.47,6.94-7.54v-1.99s-1.99-2-1.99-2l7.48,1.75c.71-2.41,2.53-1.29,3.67-1.85,2.03-1,4.48-3.9,4.84-3.9h14c.22,0,2,3.43,2,4-20.47-5.3-40.23,8.52-42.04,29.46-2.57,29.86-2.11,72.57,40.04,66.54Z"/>
      <path class="cls-5" d="M342,526.4l-181.56-.06c-1.35-.23-6.22,2.99-6.46,3.77-1.34,4.38,3.13,3.98,2.01,8.29-4.95-1.64-3.72-13.29,2.45-13.05,59.35.58,118.72-.59,178.06.03,1.69.02,4.45-.64,5.49,1.02Z"/>
      <path class="cls-23" d="M232,162.4v83.5c.55,5.25,1.8,5.87,6,8.5-1.23-.02-5.79.21-5.99-.01s.28-4.01-2.09-5.42l.03-85.98c.18-1.16,1.9-.41,2.05-.59Z"/>
      <path class="cls-20" d="M158,312.4c60.28,2.32,121.42.34,182,1l2,1-184.54.06c-2.2-1.43-4.87-3.76-5.46-6.06h1l5,4Z"/>
      <path class="cls-7" d="M342,449.4h-185c.02-.05-1.84-.85-.5-1,59.99.5,120.02-.64,180.01-.01,1.69.02,4.45-.64,5.49,1.02Z"/>
      <path class="cls-5" d="M342,538.4c-.88.32-1.86,1.54-3.38,1.07-58.7-.69-117.44.67-176.13-.05-1.69-.02-4.45.64-5.49-1.02h185Z"/>
      <path class="cls-20" d="M340,372.4c1.14-.29,1.52.71,2,1h-184v-1c59.4-3.54,122.24,2.65,182,0Z"/>
      <path class="cls-3" d="M78,558.4c.08-2.45,1.75-3.74,3.99-4.02v-1.98s-1.99-.99-1.99-.99c5.68-.24,9.75-5.44,13.56-9.47.73-.77,2.3-4.76,2.76-5.22,3.18-3.18,9.47-6.25,13.62-11.1,1.34-1.57,1.63-4.18,2.36-4.93.83-.84,4.83-1.38,5.47-2.56.48-.87-.03-2.31.29-2.95.58-1.17,2.26-.56,1.98-2.22-.9-5.43-5.2-5.28-9.79-4.27l-30.55,31.39-2.7.31c-.02-1.96,1.35-2.78,2.48-4.01,9.2-10.01,19.89-18.85,29.16-28.84,9.01-5.52,16.17,3.48,9.88,11.87-4.8,6.4-31.18,32.93-37.49,37.55-1.23.9-1.42,1.13-3.03,1.43Z"/>
      <path class="cls-7" d="M102,173.4c.61,10.29-8.25,6.67-15.44,9.05-2.02-5.19-2.51-.22-3.2-.03-1.53.4-3.69-.25-5.36-.02l.07,60.54c-.67,2.04-2.28,2.98-4.07,3.46l3.02-7.48-.03-59.53c5.67.64,11-.48,16.52-1.07,4.8-.51,5.19,2.36,8.48-4.93Z"/>
      <path class="cls-9" d="M294,235.4c-.55-2.13.23-3.26.76-4.93,2.54-7.97,1.98-41.64.24-51.07,2.71-.02,2.8,1.19,3.05,3.45.8,7.21.97,41.68-.63,47.47-.61,2.22-2.82,3.9-3.43,5.08Z"/>
      <path class="cls-5" d="M97,165.4l-58,2c2.28-2.27,6.26-2.77,9.46-3.04,7.86-.64,42.82-1.03,48.54,1.04Z"/>
      <path class="cls-9" d="M275,158.4c-12.53-1.33-27.22.99-40,0,.42-.4.39-1.44,1.65-1.8,3.9-1.13,27.45-.61,32.84-.2,1.94.15,4.12.48,5.51,2Z"/>
      <path class="cls-18" d="M94,392.4l-3.4,10.11c-3.08,2.48-6.96,3.2-10.6,3.89,3.98-5.33,9.32-9.4,14-14Z"/>
      <path class="cls-7" d="M378,180.4c.09.12,1.83-.5,2.05.63l.02,49.92c-.26,1.81-2.05,1.86-3.07,3.46.49-2.3.65-4.68,1-7,1.83-12.23,1.17-25.91,1.02-38.51-.02-1.69.64-4.45-1.02-5.49v-3Z"/>
      <path class="cls-3" d="M54,538.4c5.31-1.36,3.33,2.28,5.03,3.49.74.53,2.42.24,2.81.69.52.59-.13,2.44.46,3.53.96,1.76,7.3,5.56,8.31,8.34l5.38-2.06,1.01,3.99-3.01,2.01c-2.84-.54-12.04-10.14-14.57-12.96-1.51-1.68-3.43-4.74-5.43-7.04Z"/>
      <path class="cls-18" d="M372,242.4c-.52,1.12,1.36,4.43-1.96,4.03l-.06,1.46c5.75,1.25-3.96,7.81-4.03,2.57l-1.44-.07c.95,3.26-1.35,2.61-2.51,0,3.19-1.79,6.72-6,10-8Z"/>
      <path class="cls-5" d="M182,229.4v-46c1.95,10.66,2.07,35.41,0,46Z"/>
      <path class="cls-6" d="M204.76,25.67c34.96-4.69,34.61,51.82-1.81,45.29-24.02-4.31-23.95-41.83,1.81-45.29ZM210,40.4c-.13-.11.31-1.47-.12-1.82l-11.88,1.83,2.01,5c-3.63,13.76,17.99,15.37,15.95,1.57-.72-4.85-3.4-4.46-5.95-6.57Z"/>
      <path class="cls-16" d="M294,118.4c.05.66-.03,1.34,0,2-57.22-1.8-115.95,2.4-173,0-.99-.04-2.03.11-3,0-.56-3.03,1.53-1.92,3.45-2,56.78-2.25,116.13,3.19,172.55,0Z"/>
      <path class="cls-11" d="M294,120.4h1c-.58.11-2.02,1.62-3.38,1.07-55.04-.66-110.1.63-165.13-.06-1.69-.02-4.45.64-5.49-1.02,57.05,2.4,115.78-1.8,173,0Z"/>
      <path class="cls-19" d="M274,174.4c4.02,1.97,5.21,3.99,7,8,.25.56.85,2.38,1,3-.83,12.95,1.12,27.22,0,40-.03.33.04.67,0,1h-2s0,5,0,5c-2.28,3.95-5.5,5.58-10,7h-22.01s-.99-64-.99-64c.03-.66-.05-1.34,0-2,8.57.74,19.14-1.86,27.01,2Z"/>
      <path class="cls-9" d="M268,239.4l-22,1v-70h23.5c.33,0,5.81,2.5,4.5,4-7.87-3.86-18.43-1.25-27.01-2-.05.66.04,1.33,0,2-1.04,21.37.78,43.55,0,65.01,6.62-.63,14.58.84,21.01,0Z"/>
      <path class="cls-7" d="M247,174.4l.99,64.01h22.01c-.44.13-.91.85-2,.99-6.42.84-14.38-.62-21.01,0,.78-21.45-1.04-43.64,0-65.01Z"/>
      <path class="cls-5" d="M281,182.4c3.5-.12,2.76-.62,3,2.45,1.04,13.23-.78,27.68,0,41.05l-1-.5c-1.09-11.82,1.45-26.1.06-37.6-.18-1.5-.98-2.08-1.06-2.4-.15-.62-.75-2.44-1-3Z"/>
      <path class="cls-7" d="M283,225.4h-1c1.12-12.78-.83-27.05,0-40,.07.31.88.89,1.06,2.4,1.39,11.5-1.15,25.78-.06,37.6Z"/>
      <path class="cls-7" d="M282,226.4c-.31,2.27-.93,3.16-2,5v-5.01s2,0,2,0Z"/>
      <path class="cls-19" d="M362,231.4c-.35.32-.67.66-1,1l-1,1c-7.21,6.07-15.62,8.61-24,3-3.43-3.98-3.94-4.03-6-9,1.25-12.89-1.72-28.94.06-41.43.88-6.16,6.48-5.9,5.94-11.57,11.17-6.75,26.57-.91,28,12.5,1.08,10.06.93,35.34-2,44.5Z"/>
      <path class="cls-18" d="M336,174.4c.55,5.67-5.06,5.41-5.94,11.57-1.78,12.49,1.19,28.54-.06,41.43-.59-1.42-1.66-1.38-2.03-4.46-.88-7.35-.87-28.68.12-35.95.65-4.78,3.75-10.07,7.91-12.59Z"/>
      <path class="cls-3" d="M362,231.4c-.18.56.23,1.49-.3,2.7-.11.26-3.77,3.83-4.01,3.97-1.1.68-5.86,2.01-7.36,2.66-.35.15-.35,1.44-1.03,1.63-4.43,1.26-4.37-1.82-4.97-1.95-1.74-.38-3.75.29-5.6-.05-1.31-.24-2.41-3.6-2.72-3.96,8.38,5.61,16.79,3.07,24-3,.37-.31.67-.66,1-1s.65-.68,1-1Z"/>
      <path class="cls-9" d="M378,227.4v-44c1.66,1.04,1,3.79,1.02,5.49.16,12.6.82,26.28-1.02,38.51Z"/>
      <path class="cls-22" d="M168,184.4c.54,12.28,2.97,30.21,0,42-4.51,17.88-29.05,18.77-34.72,1.22-2.45-7.59-2.25-38.25.98-45.46,4.91-10.96,20.18-13.22,28.79-5.3,2.41,2.21,3.23,6.02,4.95,7.55Z"/>
      <path class="cls-12" d="M168,184.4c.27.24,2.5-.82,2.06,1.43-.41,12.35.35,24.76-.06,37.11-.06,1.92,1.02,4.01-2,3.45,2.97-11.79.54-29.72,0-42Z"/>
      <path class="cls-24" d="M342,376.4v4s1.99-1.99,1.99-1.99c2.64,9.9-9.75,8.94-16.56,8.07-1.92-.24-1.04-2.11-2.87-2.16h-157.13c-6.5,5.91-15.53.06-9.93-7.92h184.5Z"/>
      <path class="cls-24" d="M342,299.4c-.76,3.35,1.99,2.16,2.1,5.47.05,1.48-1.79,5.53-2.1,5.53h-186c-.21-1.67.42-3.84.02-5.36-.28-1.07-3.01.01-2.02-2.64,3.23,1.43,4.21-1.86,4.69-1.98,2.25-.55,7.92,1.69,7.31-2.02,57.28-1.9,115.25,1.48,172.61-.07,1.67-.48,2.4.59,3.39,1.07Z"/>
      <path class="cls-12" d="M342,299.4c6.52,3.11,5.12,11.98-2,13h-182l-5-4c-.52-2.62.14-3.9,1-6-.99,2.66,1.74,1.57,2.02,2.64.4,1.52-.23,3.69-.02,5.36h186c.31,0,2.15-4.05,2.1-5.53-.11-3.3-2.86-2.12-2.1-5.47Z"/>
      <path class="cls-11" d="M340,312.4v1c-60.58-.66-121.72,1.32-182-1h182Z"/>
      <path class="cls-3" d="M166,298.4c.61,3.71-5.07,1.47-7.31,2.02-.47.12-1.46,3.41-4.69,1.98,2.33-5.67,6.52-3.82,12-4Z"/>
      <path class="cls-8" d="M151.5,302.4c.65.33.65.67,0,1v-1Z"/>
      <path class="cls-8" d="M14,98.4c.49-1.39,7.58-9.16,9.06-10.44,2.48-2.14,10.42-5.56,13.44-5.56h67.5c.39,10.59-1.84,18.27,3,28,.6,1.21.86,2.95,1.57,3.94.9,1.25,1.94,1.51,2.43,2.06.62.7,1.79.79,2,1,.41.42.59,1.65,1,2,1.27,1.09,2,2.89,3.46,3.07h177.1c2.19-.22,7.28-1.51,9.11-2.44,1.48-.76,1.86-2.93,2.34-3.63,1.71-2.49,2.8-4.16,4-7,2.92-6.89.92-5.53.96-11.46.03-5.76-1.75-14.82,5.04-15.54,21.08-2.22,46.07,1.53,67.51.2.95,2.66,3.27,1.52,5.19,2.58,5.5,3.03,8.13,6.23,11.3,11.22.34,2.22-.53,5.37-.02,7.35.28,1.07,2.02.55,2.02.65v486h-3.01c3.32,5-1.67,5.43-.99,10-4.02,5.09-9.16,9.58-16,10-115.98,0-232.02,0-348,0h-4c-.29-.27-2.34-.2-3.27-.93-5.89-4.65-8.69-9.29-12.73-15.07l-2-10.5V110.9c0-1.92,1.3-10.54,2-12.5ZM396,110.4h-2v480h2V110.4ZM160,158.4c0-.57-1.78-4-2-4h-14c-.36,0-2.81,2.9-4.84,3.9-1.14.56-2.96-.56-3.67,1.85l-7.48-1.75,1.99,2v1.99c-3.37-.93-5.27,4.91-6.94,7.54-3.81,2.19-1.87-2.1-5.05-1.53-1,2.88,2.32,5.18,2.05,7.44-.07.55-1.88.42-2.05,1.21-.32,1.45.31,3.17-.02,4.64-.08.36-3.6,4.76-3.98,5.43-.91,1.6-.5,33.24.06,36.71.42,2.59,5.39,11.02,5.92,13.25.4,1.66-.47,3.79.48,5.38l3.51.4c-2.16,3.8,4.42,5.17,5.5,6.57.6.77.32,2.48.66,2.81.68.64,3.69-.18,5.19.16.34.08,3.88,1.53,5.97,2.18s3.5,4.19,6.41,4.62c1.41.21,6.48-.69,8.82-.82,2.86-.15,1.05-2.48,1.48-4,11.54-1.65,21.84-13.94,24-25,2.07-10.59,1.95-35.34,0-46s-10.57-22.04-22-25ZM235,158.4c-1.63,1.54-1.79,2.63-3,4-.15.17-1.87-.57-2.05.59l-.03,85.98c2.36,1.41,1.88,5.19,2.09,5.42s4.76,0,5.99.01c23.39.31,43.92,4.42,56-19,.61-1.18,2.81-2.86,3.43-5.08,1.6-5.79,1.43-40.26.63-47.47-.25-2.26-.34-3.47-3.05-3.45-.38-2.04-.43-4.29-1.27-6.23-2.47-5.64-12.58-14.12-18.73-14.77-1.38-1.51-3.56-1.85-5.51-2-5.39-.42-28.93-.94-32.84.2-1.26.37-1.23,1.4-1.65,1.8ZM362,250.4c1.16,2.6,3.46,3.26,2.51,0l1.44.07c.07,5.24,9.78-1.32,4.03-2.57l.06-1.46c3.32.4,1.44-2.91,1.96-4.03,1.13-2.47,3.48-5.62,5-8,1.01-1.59,2.81-1.65,3.07-3.46l-.02-49.92c-.21-1.12-1.96-.5-2.05-.63-1.66-2.34-2.44-6.9-4.56-9.94-14.46-20.68-46.41-17.87-56.82,5.05-4.79,10.54-4.93,42.48-2.16,53.93,4.89,20.26,29.09,31.32,47.55,20.95ZM39,167.4c-3.8,3.79-1.5,12,2.5,12h20.5v62.5c0,.88,3.42,4.94,4.72,5.31,2.48.72,4.94-.18,7.28-.81,1.79-.48,3.4-1.42,4.07-3.46l-.07-60.54c1.67-.22,3.83.42,5.36.02.7-.18,1.19-5.16,3.2.03,7.19-2.38,16.05,1.24,15.44-9.05-.26-4.39-.48-6.37-5-8-5.72-2.07-40.68-1.68-48.54-1.04-3.2.26-7.18.76-9.46,3.04ZM70.37,329.99c3.89,2.58,6.01,3.16,10.14.42,4.89-3.25,34.1-32.74,38.01-37.98,6.17-8.27.26-15.88-9.08-12.07l-33.07,32.98c-1.68.38-11.97-13.59-15.63-15.18-6.95-3.02-13.35,4.07-9.61,10.62l19.24,21.21ZM342,314.4c8.28-3.13,8.57-13.84.54-18.06-60.03.28-120.06-.18-180.09.12-1.67,0-4.45-.89-5.04-.78-.97.17-.98,2.06-1.66,2.48-.75.47-5.14.61-5.71,2.96-.91,3.72,1.67,3.09,1.94,4,.33,1.1-.19,2.46.02,3.28.59,2.31,3.26,4.63,5.46,6.06l184.54-.06ZM80,406.4c3.64-.69,7.52-1.42,10.6-3.89l3.4-10.11c4.62-4.54,8.93-9.43,13.47-14.05,4.83-4.92,15.71-10.73,13.08-19-2.05-6.43-8.65-5.11-13.04-1.94-5.19,3.73-28.87,30.52-31.14,30.92-7.05-2.94-14.68-20.39-23.44-13.5-1.56,1.23-3.06,3.98-2.92,6.01.23,3.28,18.38,23.76,21.62,25.44,4.09,2.12,4.85.8,8.38.13ZM340,372.4l1.43-4.01-174-.06c-2.79,3.02-4.75,2.04-8.78,2.07l-.66,2.01c-2.81.17-4.8.31-6.27,3.28-3.68,7.42.14,6.85,1.76,13.74l2.96,1.04h186.09c4.51-2.74,7.36-7.03,5.64-12.62-.06-.2-2.19-3.22-2.38-3.29-.42-.16-.73.87-.8.85-2.96-.57-2.22-1.53-3-2-.48-.29-.86-1.29-2-1ZM55.58,464.82c2.99,3.61,11.81,14.18,14.89,16.61,1.9,1.5,5.22,2.4,7.56,1.57l40.97-40.09c5.68-6.5-1.18-15.32-8.99-11.98l-33.65,33.4c-7.42-3.53-12.7-19.94-22.65-14.71-8.23,4.33-1.61,10.99,1.87,15.2ZM157,449.4c-.82,2.27-3.81,1.29-4.04,6.52s.55,3.92,3.04,6.48c.14.14-.33,1.45.13,1.83l182.48.24c1.67.48,2.4-.59,3.39-1.07,6.58-3.14,4.6-9.95,0-14-1.04-1.66-3.79-1-5.49-1.02-59.99-.63-120.02.51-180.01.01-1.34.16.52.95.5,1ZM78,558.4c1.61-.3,1.8-.54,3.03-1.43,6.32-4.62,32.69-31.14,37.49-37.55,6.29-8.39-.87-17.39-9.88-11.87-9.27,9.99-19.96,18.83-29.16,28.84-1.13,1.23-2.51,2.05-2.48,4.01-6.85-3.15-13.82-19.54-22.98-15.47-2.63,1.17-4.21,6.97-3.59,9.52.56,2.32,2.56,2.79,3.57,3.96,2,2.31,3.92,5.36,5.43,7.04,2.53,2.81,11.72,12.42,14.57,12.96.83.16,3.17.16,4,0ZM156,538.4c.3.1.69-.07,1,0,1.04,1.66,3.79,1,5.49,1.02,58.69.73,117.43-.64,176.13.05,1.53.47,2.5-.75,3.38-1.07,5.68-2.06,5.43-11.22,0-12-1.04-1.66-3.79-1-5.49-1.02-59.34-.62-118.72.54-178.06-.03-6.17-.24-7.4,11.41-2.45,13.05Z"/>
      <path class="cls-22" d="M210,40.4c2.55,2.12,5.24,1.72,5.95,6.57,2.04,13.8-19.58,12.19-15.95-1.57.8-3.03,6.78-5.98,10-5Z"/>
      <path class="cls-3" d="M200,45.4l-2.01-5,11.88-1.83c.43.35-.01,1.71.12,1.82-3.22-.98-9.2,1.97-10,5Z"/>
      <path class="cls-4" d="M360,233.4l1-1c-.33.34-.63.69-1,1Z"/>
    </g>
  </g>
</svg>