<?xml version="1.0" encoding="UTF-8"?>
<svg id="_Слой_2" data-name="Слой 2" xmlns="http://www.w3.org/2000/svg" viewBox="0 0 997.61 936.59">
  <defs>
    <style>
      .cls-1 {
        fill: #fdeebd;
      }

      .cls-2 {
        fill: #030202;
      }

      .cls-3 {
        fill: #fcd03a;
      }

      .cls-4 {
        fill: #fd5077;
      }

      .cls-5 {
        fill: #fccf9a;
      }

      .cls-6 {
        fill: #fb3085;
      }

      .cls-7 {
        fill: #d9eef8;
      }

      .cls-8 {
        fill: #a0f394;
        stroke: #f5d259;
        stroke-miterlimit: 10;
        stroke-width: 7px;
      }

      .cls-9 {
        fill: #16202c;
      }

      .cls-10 {
        fill: #fcb049;
      }

      .cls-11 {
        fill: #2c3d52;
      }

      .cls-12 {
        fill: #fafafa;
      }
    </style>
  </defs>
  <g id="_Слой_2-2" data-name=" Слой 2">
    <g id="_Слой_2-2" data-name=" Слой 2-2">
      <g id="_Слой_1-2" data-name=" Слой 1-2">
        <g>
          <path class="cls-8" d="M994.11,474.99c-11.12,610.85-979.58,610.75-990.61-.02,11.12-610.84,979.58-610.74,990.61.02Z"/>
          <g>
            <path class="cls-2" d="M156.68,918.25h-15.41c-13.11-7.37-19.84-15.21-26.18-30.49v-19.71l75.42-208.85L741.53,17.31c21.75-22.51,52.84-23.02,75.46-1.8,18.19,17.07,57.41,63.07,72.36,84.25,18.92,26.78,18.79,62.6-.78,88.81L338.33,829.56l-181.67,88.7h.02ZM789.26,210.08c4.08,4.65,20.44,28.13,25.09,26.71,16.39-21.99,42.47-43.56,57.12-66.29,10.71-16.61,12.1-34.35,1.59-51.72-3.68-6.09-10.28-11.04-14.51-16.24-14.93-18.32-39.89-52.38-56.18-66.32-40.14-34.4-73.96,42.88-101.63,66.37l.72,6.32c29.03,34.03,58.47,67.59,87.82,101.22v-.05h-.02ZM738.47,265.66c4.09,4.7,21.73,28.74,25.4,28.74l31.6-36.81c0-4.27-20.69-24.86-24.67-29.58-28.38-33.56-56.63-67.31-85.35-100.5l-3.14-1.75c-1.35-.1-2.14.98-3.14,1.75-2.63,2.03-25.17,28.31-26.95,31.39-.97,1.68-2,2.87-1.28,5.1,28.46,34.75,58.23,67.97,87.58,101.65h-.05ZM305.98,773.04c3.94,4.53,20.19,26.94,23.86,26.94l416.39-485.05c0-4.27-19.24-23.19-23.13-27.78-4.73-5.6-18.65-25.23-23.09-27.91-1.19-.72-1.89-1.2-3.05,0l-190.84,222.46c-11.19,12.4-26.55-3.97-16.96-17.96l192.27-224.36-48.36-56.29-416.39,485.05,48.31,56.34,191.79-223.11c10.82-12.34,26.06,4.72,16.96,17.96l-191.7,223.23c-1.03,1.33-.62,2.18,0,3.55,2.28,5.17,19.15,21.39,23.95,26.89h-.05l.03.03ZM205.95,846.54c4.03,4.4,7.48,13.99,14.21,12.24l87.36-40.96c.62-2.73-.62-2.97-1.52-4.5-4.23-7.14-14.5-15.86-20.02-22.39-26.89-31.69-53.45-63.84-80.79-95.03l-3.86-1.77-35.46,104.82c.38,4.57,34.38,41.36,40.08,47.6h.02ZM145.91,889.58c2.52,1.1,2.22,2.48,6.5,1.47,3.57-.87,39.62-17.76,39.65-20.29-1.83-3.33-5.63-5.55-7.67-8.07-9.34-11.54-18.61-23.09-28.47-34.03-2.25,0-17.39,44.28-17.68,47.63-.66,7.47,2.25,10.92,7.7,13.27h0l-.02.02Z"/>
            <path class="cls-3" d="M723.08,287.17l-417.1,485.87c-4.82-5.5-21.66-21.72-23.95-26.89-.62-1.38-1.03-2.2,0-3.55l191.7-223.23c9.11-13.24-6.14-30.29-16.96-17.96l-191.79,223.11-48.31-56.34,416.37-485.05,48.36,56.29-192.27,224.36c-9.59,13.99,5.77,30.38,16.96,17.96l190.84-222.46c1.15-1.2,1.88-.72,3.05,0,4.45,2.65,18.36,22.29,23.09,27.91h.02v-.02Z"/>
            <path class="cls-10" d="M305.98,773.04l417.1-485.87c3.88,4.6,23.13,23.52,23.13,27.78l-416.4,485.05c-3.66,0-19.9-22.42-23.86-26.94h.02l.02-.02Z"/>
            <path class="cls-4" d="M858.52,102.51c.06,5.49.31,10.8-.68,16.24-5.28,29.18-53.52,66.01-68.57,91.33-29.34-33.63-58.78-67.19-87.82-101.22l-.72-6.32c27.67-23.49,61.5-100.77,101.63-66.37,16.28,13.97,41.25,48.02,56.18,66.32h-.02v.02Z"/>
            <path class="cls-1" d="M285.97,790.98l-80.02,55.57c-5.69-6.24-39.68-43.01-40.08-47.6l35.46-104.82,3.86,1.77c27.32,31.23,53.89,63.35,80.79,95.03h-.02v.05Z"/>
            <path class="cls-12" d="M770.79,228.02c-6.48,11.7-17.19,23.61-26.13,33.19-1.89,2.03-3.17,4.48-6.19,4.45-29.34-33.68-59.12-66.92-87.58-101.65-.72-2.23.32-3.42,1.28-5.1,1.79-3.08,24.32-29.36,26.95-31.39,1-.77,1.79-1.85,3.14-1.75l3.14,1.75c28.72,33.19,56.98,66.94,85.35,100.5h.05Z"/>
            <path class="cls-6" d="M789.26,210.08c15.05-25.31,63.29-62.15,68.57-91.33.99-5.44.74-10.77.68-16.24,4.26,5.22,10.84,10.19,14.51,16.24,10.53,17.39,9.13,35.13-1.59,51.72-14.67,22.72-40.73,44.32-57.12,66.29-4.65,1.43-21.01-22.04-25.09-26.71h.02l.02.03Z"/>
            <path class="cls-5" d="M285.97,790.98c5.53,6.52,15.79,15.24,20.02,22.39.91,1.52,2.14,1.77,1.52,4.5l-87.36,40.96c-6.73,1.72-10.17-7.84-14.21-12.24l80.02-55.57v-.05h0Z"/>
            <path class="cls-7" d="M738.47,265.66c3.02.05,4.28-2.42,6.19-4.45,8.94-9.59,19.67-21.51,26.13-33.19,3.99,4.72,24.67,25.31,24.67,29.58l-31.6,36.81c-3.66,0-21.3-24.04-25.4-28.74Z"/>
            <path class="cls-11" d="M184.39,862.68l-38.46,26.89c-5.45-2.35-8.34-5.8-7.7-13.27.29-3.35,15.44-47.63,17.68-47.63,9.85,10.95,19.15,22.49,28.47,34.03h0v-.02Z"/>
            <path class="cls-9" d="M184.39,862.68c2.02,2.52,5.83,4.73,7.67,8.07,0,2.53-36.06,19.42-39.65,20.29-4.28,1.03-3.97-.37-6.5-1.47l38.46-26.89h.02Z"/>
          </g>
        </g>
      </g>
    </g>
  </g>
</svg>