<?xml version="1.0" encoding="UTF-8"?>
<svg id="_Слой_2" data-name="Слой 2" xmlns="http://www.w3.org/2000/svg" viewBox="0 0 501.47 101.38">
  <defs>
    <style>
      .cls-1 {
        fill: #fdeebd;
      }

      .cls-2 {
        fill: #fcd03a;
      }

      .cls-3 {
        fill: #2c3d51;
      }

      .cls-4 {
        fill: #def4fe;
      }

      .cls-5 {
        fill: #fd5077;
      }

      .cls-6 {
        fill: #fccf9a;
      }

      .cls-7 {
        fill: #fd3186;
      }

      .cls-8 {
        fill: #151f2c;
      }

      .cls-9 {
        fill: #040303;
      }

      .cls-10 {
        fill: #fefefe;
      }

      .cls-11 {
        fill: #feb14a;
      }
    </style>
  </defs>
  <g id="_Слой_1-2" data-name="Слой 1">
    <g>
      <path class="cls-9" d="M94,0l382.7.04c10.36,2.89,19.39,6.39,22.74,17.49,2.35,7.77,2.6,53.09,1.1,61.91-2.26,13.3-12.91,20.42-25.69,21.94l-379.96-.06L8.17,65.25c-10.88-7.29-10.89-22.03,0-29.34L94,0ZM388.58,72.81c0-1.74.85-16.94,0-16.94h-134.97c-3.45,0-3.45-10.59,0-10.59h134.97V11.41H101.7v33.87h134.97c3.44,3.17,3.49,7.36,0,10.59H101.7v33.87h286.88v-16.94ZM400.22,72.81c.04,5.63-.03,11.31,0,16.94h22.23c.03-5.63-.04-11.31,0-16.94.16-20.45-.12-40.95,0-61.4h-22.23c.12,20.45-.16,40.95,0,61.4ZM434.1,72.81c.04,5.63-.03,11.31,0,16.94h42.87c.86,0,5.76-2.93,6.8-3.79,6.75-5.53,6.1-12.76,6.43-20.56.45-10.54,1.22-29.33-.47-39.23-.94-5.46-6.84-14.76-12.76-14.76h-42.87c.12,20.45-.16,40.95,0,61.4ZM45.6,61.16c.08,2.3-.78,6.42,1.05,7.95l41.95,17.34c2.02.45,1.29-.01,1.46-1.46.47-3.97-.06-9.07,0-13.25.27-19.03-.19-38.13,0-57.16l-43.97,17.95c-1.01,1.5-.63,24.67-.49,28.62ZM12.78,52.69c.32.77-.11,1.67,1.06,2.6.94.75,16.65,7.39,18.57,7.95,2.6.77,1.5-4.6,1.54-6.32.17-6.33-.12-12.72,0-19.05-.75-.83-19.86,7.66-20.7,8.39-2.71,2.37-1.52,3.94-.47,6.42Z"/>
      <path class="cls-2" d="M101.7,72.81v-16.94h134.97c3.49-3.22,3.44-7.42,0-10.59H101.7V11.41h286.88v33.87h-134.97c-3.45,0-3.45,10.59,0,10.59h134.97c.85,0,0,15.2,0,16.94H101.7Z"/>
      <rect class="cls-11" x="101.7" y="72.81" width="286.88" height="16.94"/>
      <path class="cls-5" d="M490.2,65.4c-14.15,13.55-38.06,5.08-56.11,7.41-.16-20.45.12-40.95,0-61.4h42.87c5.92,0,11.82,9.3,12.76,14.76,1.69,9.89.93,28.68.47,39.23Z"/>
      <path class="cls-1" d="M45.6,61.16c-.14-3.96-.53-27.12.49-28.62l43.97-17.95c-.19,19.03.28,38.13,0,57.16l-44.46-10.59Z"/>
      <path class="cls-10" d="M400.22,72.81c-.16-20.45.12-40.95,0-61.4h22.23c-.12,20.45.16,40.95,0,61.4h-22.23Z"/>
      <path class="cls-7" d="M490.2,65.4c-.34,7.8.31,15.03-6.43,20.56-1.04.85-5.94,3.79-6.8,3.79h-42.87c-.03-5.63.04-11.31,0-16.94,18.04-2.33,41.95,6.14,56.11-7.41Z"/>
      <path class="cls-6" d="M90.06,71.75c-.06,4.18.47,9.28,0,13.25-.17,1.44.56,1.91-1.46,1.46l-41.95-17.34c-1.83-1.53-.97-5.65-1.05-7.95l44.46,10.59Z"/>
      <path class="cls-4" d="M422.45,72.81c-.04,5.63.03,11.31,0,16.94h-22.23c-.03-5.63.04-11.31,0-16.94h22.23Z"/>
      <path class="cls-3" d="M12.78,52.69c-1.05-2.48-2.24-4.05.47-6.42.84-.74,19.95-9.23,20.7-8.39-.12,6.33.18,12.72,0,19.05l-21.17-4.23Z"/>
      <path class="cls-8" d="M33.95,56.93c-.05,1.72,1.06,7.08-1.54,6.32-1.92-.56-17.63-7.2-18.57-7.95-1.17-.93-.73-1.84-1.06-2.6l21.17,4.23Z"/>
    </g>
  </g>
</svg>